%TF.GenerationSoftware,KiCad,Pcbnew,7.0.8*%
%TF.CreationDate,2023-11-17T10:19:14-05:00*%
%TF.ProjectId,rebafloot,72656261-666c-46f6-9f74-2e6b69636164,rev?*%
%TF.SameCoordinates,Original*%
%TF.FileFunction,Soldermask,Bot*%
%TF.FilePolarity,Negative*%
%FSLAX46Y46*%
G04 Gerber Fmt 4.6, Leading zero omitted, Abs format (unit mm)*
G04 Created by KiCad (PCBNEW 7.0.8) date 2023-11-17 10:19:14*
%MOMM*%
%LPD*%
G01*
G04 APERTURE LIST*
G04 Aperture macros list*
%AMRoundRect*
0 Rectangle with rounded corners*
0 $1 Rounding radius*
0 $2 $3 $4 $5 $6 $7 $8 $9 X,Y pos of 4 corners*
0 Add a 4 corners polygon primitive as box body*
4,1,4,$2,$3,$4,$5,$6,$7,$8,$9,$2,$3,0*
0 Add four circle primitives for the rounded corners*
1,1,$1+$1,$2,$3*
1,1,$1+$1,$4,$5*
1,1,$1+$1,$6,$7*
1,1,$1+$1,$8,$9*
0 Add four rect primitives between the rounded corners*
20,1,$1+$1,$2,$3,$4,$5,0*
20,1,$1+$1,$4,$5,$6,$7,0*
20,1,$1+$1,$6,$7,$8,$9,0*
20,1,$1+$1,$8,$9,$2,$3,0*%
G04 Aperture macros list end*
%ADD10C,1.524000*%
%ADD11R,2.400000X2.400000*%
%ADD12C,2.400000*%
%ADD13R,1.600000X1.600000*%
%ADD14O,1.600000X1.600000*%
%ADD15R,1.700000X1.700000*%
%ADD16O,1.700000X1.700000*%
%ADD17C,3.000000*%
%ADD18RoundRect,0.102000X1.000000X1.000000X-1.000000X1.000000X-1.000000X-1.000000X1.000000X-1.000000X0*%
%ADD19C,2.204000*%
%ADD20R,3.500000X3.500000*%
%ADD21RoundRect,0.750000X-1.000000X0.750000X-1.000000X-0.750000X1.000000X-0.750000X1.000000X0.750000X0*%
%ADD22RoundRect,0.875000X-0.875000X0.875000X-0.875000X-0.875000X0.875000X-0.875000X0.875000X0.875000X0*%
G04 APERTURE END LIST*
D10*
%TO.C,U3*%
X74930000Y-90170000D03*
X74930000Y-87630000D03*
X74930000Y-85090000D03*
X74930000Y-82550000D03*
X74930000Y-80010000D03*
X74930000Y-77470000D03*
%TD*%
D11*
%TO.C,C1*%
X88900000Y-132000000D03*
D12*
X88900000Y-127000000D03*
%TD*%
D13*
%TO.C,U1*%
X71120000Y-101600000D03*
D14*
X71120000Y-104140000D03*
X71120000Y-106680000D03*
X71120000Y-109220000D03*
X71120000Y-111760000D03*
X71120000Y-114300000D03*
X71120000Y-116840000D03*
X71120000Y-119380000D03*
X78740000Y-119380000D03*
X78740000Y-116840000D03*
X78740000Y-114300000D03*
X78740000Y-111760000D03*
X78740000Y-109220000D03*
X78740000Y-106680000D03*
X78740000Y-104140000D03*
X78740000Y-101600000D03*
%TD*%
D15*
%TO.C,M1*%
X60960000Y-111760000D03*
D16*
X60960000Y-109220000D03*
%TD*%
D17*
%TO.C,U2*%
X131660000Y-134960000D03*
X131660000Y-88010000D03*
X107150000Y-134960000D03*
X107150000Y-88010000D03*
D18*
X132080000Y-127000000D03*
D19*
X132080000Y-124460000D03*
X132080000Y-121920000D03*
X132080000Y-119380000D03*
X132080000Y-116840000D03*
X132080000Y-114300000D03*
X132080000Y-111760000D03*
X132080000Y-109220000D03*
X132080000Y-106680000D03*
X132080000Y-104140000D03*
X132080000Y-101600000D03*
X132080000Y-99060000D03*
X132080000Y-96520000D03*
X132080000Y-93980000D03*
X132080000Y-91440000D03*
X106680000Y-91440000D03*
X106680000Y-93980000D03*
X106680000Y-96520000D03*
X106680000Y-99060000D03*
X106680000Y-101600000D03*
X106680000Y-104140000D03*
X106680000Y-106680000D03*
X106680000Y-109220000D03*
X106680000Y-111760000D03*
X106680000Y-114300000D03*
X106680000Y-116840000D03*
X106680000Y-119380000D03*
X106680000Y-121920000D03*
X106680000Y-124460000D03*
X106680000Y-127000000D03*
%TD*%
D15*
%TO.C,BT1*%
X93980000Y-71120000D03*
D16*
X93980000Y-68580000D03*
%TD*%
D20*
%TO.C,J1*%
X109220000Y-77120000D03*
D21*
X109220000Y-71120000D03*
D22*
X104520000Y-74120000D03*
%TD*%
D15*
%TO.C,M2*%
X86360000Y-109220000D03*
D16*
X86360000Y-111760000D03*
%TD*%
M02*
