%TF.GenerationSoftware,KiCad,Pcbnew,7.0.8*%
%TF.CreationDate,2023-11-17T10:19:14-05:00*%
%TF.ProjectId,rebafloot,72656261-666c-46f6-9f74-2e6b69636164,rev?*%
%TF.SameCoordinates,Original*%
%TF.FileFunction,Legend,Top*%
%TF.FilePolarity,Positive*%
%FSLAX46Y46*%
G04 Gerber Fmt 4.6, Leading zero omitted, Abs format (unit mm)*
G04 Created by KiCad (PCBNEW 7.0.8) date 2023-11-17 10:19:14*
%MOMM*%
%LPD*%
G01*
G04 APERTURE LIST*
%ADD10C,0.150000*%
%ADD11C,0.120000*%
%ADD12C,0.127000*%
%ADD13C,0.200000*%
G04 APERTURE END LIST*
D10*
X63724819Y-84581904D02*
X64534342Y-84581904D01*
X64534342Y-84581904D02*
X64629580Y-84534285D01*
X64629580Y-84534285D02*
X64677200Y-84486666D01*
X64677200Y-84486666D02*
X64724819Y-84391428D01*
X64724819Y-84391428D02*
X64724819Y-84200952D01*
X64724819Y-84200952D02*
X64677200Y-84105714D01*
X64677200Y-84105714D02*
X64629580Y-84058095D01*
X64629580Y-84058095D02*
X64534342Y-84010476D01*
X64534342Y-84010476D02*
X63724819Y-84010476D01*
X63724819Y-83629523D02*
X63724819Y-83010476D01*
X63724819Y-83010476D02*
X64105771Y-83343809D01*
X64105771Y-83343809D02*
X64105771Y-83200952D01*
X64105771Y-83200952D02*
X64153390Y-83105714D01*
X64153390Y-83105714D02*
X64201009Y-83058095D01*
X64201009Y-83058095D02*
X64296247Y-83010476D01*
X64296247Y-83010476D02*
X64534342Y-83010476D01*
X64534342Y-83010476D02*
X64629580Y-83058095D01*
X64629580Y-83058095D02*
X64677200Y-83105714D01*
X64677200Y-83105714D02*
X64724819Y-83200952D01*
X64724819Y-83200952D02*
X64724819Y-83486666D01*
X64724819Y-83486666D02*
X64677200Y-83581904D01*
X64677200Y-83581904D02*
X64629580Y-83629523D01*
X81509580Y-129666666D02*
X81557200Y-129714285D01*
X81557200Y-129714285D02*
X81604819Y-129857142D01*
X81604819Y-129857142D02*
X81604819Y-129952380D01*
X81604819Y-129952380D02*
X81557200Y-130095237D01*
X81557200Y-130095237D02*
X81461961Y-130190475D01*
X81461961Y-130190475D02*
X81366723Y-130238094D01*
X81366723Y-130238094D02*
X81176247Y-130285713D01*
X81176247Y-130285713D02*
X81033390Y-130285713D01*
X81033390Y-130285713D02*
X80842914Y-130238094D01*
X80842914Y-130238094D02*
X80747676Y-130190475D01*
X80747676Y-130190475D02*
X80652438Y-130095237D01*
X80652438Y-130095237D02*
X80604819Y-129952380D01*
X80604819Y-129952380D02*
X80604819Y-129857142D01*
X80604819Y-129857142D02*
X80652438Y-129714285D01*
X80652438Y-129714285D02*
X80700057Y-129666666D01*
X81604819Y-128714285D02*
X81604819Y-129285713D01*
X81604819Y-128999999D02*
X80604819Y-128999999D01*
X80604819Y-128999999D02*
X80747676Y-129095237D01*
X80747676Y-129095237D02*
X80842914Y-129190475D01*
X80842914Y-129190475D02*
X80890533Y-129285713D01*
X74168095Y-98724819D02*
X74168095Y-99534342D01*
X74168095Y-99534342D02*
X74215714Y-99629580D01*
X74215714Y-99629580D02*
X74263333Y-99677200D01*
X74263333Y-99677200D02*
X74358571Y-99724819D01*
X74358571Y-99724819D02*
X74549047Y-99724819D01*
X74549047Y-99724819D02*
X74644285Y-99677200D01*
X74644285Y-99677200D02*
X74691904Y-99629580D01*
X74691904Y-99629580D02*
X74739523Y-99534342D01*
X74739523Y-99534342D02*
X74739523Y-98724819D01*
X75739523Y-99724819D02*
X75168095Y-99724819D01*
X75453809Y-99724819D02*
X75453809Y-98724819D01*
X75453809Y-98724819D02*
X75358571Y-98867676D01*
X75358571Y-98867676D02*
X75263333Y-98962914D01*
X75263333Y-98962914D02*
X75168095Y-99010533D01*
X60150476Y-114544819D02*
X60150476Y-113544819D01*
X60150476Y-113544819D02*
X60483809Y-114259104D01*
X60483809Y-114259104D02*
X60817142Y-113544819D01*
X60817142Y-113544819D02*
X60817142Y-114544819D01*
X61817142Y-114544819D02*
X61245714Y-114544819D01*
X61531428Y-114544819D02*
X61531428Y-113544819D01*
X61531428Y-113544819D02*
X61436190Y-113687676D01*
X61436190Y-113687676D02*
X61340952Y-113782914D01*
X61340952Y-113782914D02*
X61245714Y-113830533D01*
X129973095Y-138299819D02*
X129973095Y-139109342D01*
X129973095Y-139109342D02*
X130020714Y-139204580D01*
X130020714Y-139204580D02*
X130068333Y-139252200D01*
X130068333Y-139252200D02*
X130163571Y-139299819D01*
X130163571Y-139299819D02*
X130354047Y-139299819D01*
X130354047Y-139299819D02*
X130449285Y-139252200D01*
X130449285Y-139252200D02*
X130496904Y-139204580D01*
X130496904Y-139204580D02*
X130544523Y-139109342D01*
X130544523Y-139109342D02*
X130544523Y-138299819D01*
X130973095Y-138395057D02*
X131020714Y-138347438D01*
X131020714Y-138347438D02*
X131115952Y-138299819D01*
X131115952Y-138299819D02*
X131354047Y-138299819D01*
X131354047Y-138299819D02*
X131449285Y-138347438D01*
X131449285Y-138347438D02*
X131496904Y-138395057D01*
X131496904Y-138395057D02*
X131544523Y-138490295D01*
X131544523Y-138490295D02*
X131544523Y-138585533D01*
X131544523Y-138585533D02*
X131496904Y-138728390D01*
X131496904Y-138728390D02*
X130925476Y-139299819D01*
X130925476Y-139299819D02*
X131544523Y-139299819D01*
X93194285Y-73381009D02*
X93337142Y-73428628D01*
X93337142Y-73428628D02*
X93384761Y-73476247D01*
X93384761Y-73476247D02*
X93432380Y-73571485D01*
X93432380Y-73571485D02*
X93432380Y-73714342D01*
X93432380Y-73714342D02*
X93384761Y-73809580D01*
X93384761Y-73809580D02*
X93337142Y-73857200D01*
X93337142Y-73857200D02*
X93241904Y-73904819D01*
X93241904Y-73904819D02*
X92860952Y-73904819D01*
X92860952Y-73904819D02*
X92860952Y-72904819D01*
X92860952Y-72904819D02*
X93194285Y-72904819D01*
X93194285Y-72904819D02*
X93289523Y-72952438D01*
X93289523Y-72952438D02*
X93337142Y-73000057D01*
X93337142Y-73000057D02*
X93384761Y-73095295D01*
X93384761Y-73095295D02*
X93384761Y-73190533D01*
X93384761Y-73190533D02*
X93337142Y-73285771D01*
X93337142Y-73285771D02*
X93289523Y-73333390D01*
X93289523Y-73333390D02*
X93194285Y-73381009D01*
X93194285Y-73381009D02*
X92860952Y-73381009D01*
X93718095Y-72904819D02*
X94289523Y-72904819D01*
X94003809Y-73904819D02*
X94003809Y-72904819D01*
X95146666Y-73904819D02*
X94575238Y-73904819D01*
X94860952Y-73904819D02*
X94860952Y-72904819D01*
X94860952Y-72904819D02*
X94765714Y-73047676D01*
X94765714Y-73047676D02*
X94670476Y-73142914D01*
X94670476Y-73142914D02*
X94575238Y-73190533D01*
X102924819Y-69003333D02*
X103639104Y-69003333D01*
X103639104Y-69003333D02*
X103781961Y-69050952D01*
X103781961Y-69050952D02*
X103877200Y-69146190D01*
X103877200Y-69146190D02*
X103924819Y-69289047D01*
X103924819Y-69289047D02*
X103924819Y-69384285D01*
X103924819Y-68003333D02*
X103924819Y-68574761D01*
X103924819Y-68289047D02*
X102924819Y-68289047D01*
X102924819Y-68289047D02*
X103067676Y-68384285D01*
X103067676Y-68384285D02*
X103162914Y-68479523D01*
X103162914Y-68479523D02*
X103210533Y-68574761D01*
D11*
%TO.C,U3*%
X50800000Y-91440000D02*
X76200000Y-91440000D01*
X76200000Y-91440000D02*
X76200000Y-76200000D01*
X76200000Y-76200000D02*
X50800000Y-76200000D01*
X50800000Y-76200000D02*
X50800000Y-91440000D01*
%TO.C,C1*%
X85185000Y-136584569D02*
X85185000Y-135284569D01*
X84535000Y-135934569D02*
X85835000Y-135934569D01*
X82320000Y-129500000D02*
X95480000Y-129500000D01*
X82320000Y-129460000D02*
X95480000Y-129460000D01*
X82320000Y-129420000D02*
X95480000Y-129420000D01*
X82321000Y-129380000D02*
X95479000Y-129380000D01*
X82321000Y-129340000D02*
X95479000Y-129340000D01*
X82323000Y-129300000D02*
X95477000Y-129300000D01*
X82324000Y-129260000D02*
X95476000Y-129260000D01*
X82325000Y-129220000D02*
X95475000Y-129220000D01*
X82327000Y-129180000D02*
X95473000Y-129180000D01*
X82329000Y-129140000D02*
X95471000Y-129140000D01*
X82332000Y-129100000D02*
X95468000Y-129100000D01*
X82334000Y-129060000D02*
X95466000Y-129060000D01*
X82337000Y-129020000D02*
X95463000Y-129020000D01*
X82340000Y-128980000D02*
X95460000Y-128980000D01*
X82343000Y-128940000D02*
X95457000Y-128940000D01*
X82347000Y-128900000D02*
X95453000Y-128900000D01*
X82351000Y-128860000D02*
X95449000Y-128860000D01*
X82355000Y-128820000D02*
X95445000Y-128820000D01*
X82359000Y-128779000D02*
X95441000Y-128779000D01*
X82363000Y-128739000D02*
X95437000Y-128739000D01*
X82368000Y-128699000D02*
X95432000Y-128699000D01*
X82373000Y-128659000D02*
X95427000Y-128659000D01*
X82378000Y-128619000D02*
X95422000Y-128619000D01*
X82384000Y-128579000D02*
X95416000Y-128579000D01*
X82389000Y-128539000D02*
X95411000Y-128539000D01*
X82395000Y-128499000D02*
X95405000Y-128499000D01*
X82402000Y-128459000D02*
X95398000Y-128459000D01*
X82408000Y-128419000D02*
X87460000Y-128419000D01*
X90340000Y-128419000D02*
X95392000Y-128419000D01*
X82415000Y-128379000D02*
X87460000Y-128379000D01*
X90340000Y-128379000D02*
X95385000Y-128379000D01*
X82422000Y-128339000D02*
X87460000Y-128339000D01*
X90340000Y-128339000D02*
X95378000Y-128339000D01*
X82429000Y-128299000D02*
X87460000Y-128299000D01*
X90340000Y-128299000D02*
X95371000Y-128299000D01*
X82437000Y-128259000D02*
X87460000Y-128259000D01*
X90340000Y-128259000D02*
X95363000Y-128259000D01*
X82444000Y-128219000D02*
X87460000Y-128219000D01*
X90340000Y-128219000D02*
X95356000Y-128219000D01*
X82452000Y-128179000D02*
X87460000Y-128179000D01*
X90340000Y-128179000D02*
X95348000Y-128179000D01*
X82461000Y-128139000D02*
X87460000Y-128139000D01*
X90340000Y-128139000D02*
X95339000Y-128139000D01*
X82469000Y-128099000D02*
X87460000Y-128099000D01*
X90340000Y-128099000D02*
X95331000Y-128099000D01*
X82478000Y-128059000D02*
X87460000Y-128059000D01*
X90340000Y-128059000D02*
X95322000Y-128059000D01*
X82487000Y-128019000D02*
X87460000Y-128019000D01*
X90340000Y-128019000D02*
X95313000Y-128019000D01*
X82496000Y-127979000D02*
X87460000Y-127979000D01*
X90340000Y-127979000D02*
X95304000Y-127979000D01*
X82506000Y-127939000D02*
X87460000Y-127939000D01*
X90340000Y-127939000D02*
X95294000Y-127939000D01*
X82516000Y-127899000D02*
X87460000Y-127899000D01*
X90340000Y-127899000D02*
X95284000Y-127899000D01*
X82526000Y-127859000D02*
X87460000Y-127859000D01*
X90340000Y-127859000D02*
X95274000Y-127859000D01*
X82536000Y-127819000D02*
X87460000Y-127819000D01*
X90340000Y-127819000D02*
X95264000Y-127819000D01*
X82547000Y-127779000D02*
X87460000Y-127779000D01*
X90340000Y-127779000D02*
X95253000Y-127779000D01*
X82558000Y-127739000D02*
X87460000Y-127739000D01*
X90340000Y-127739000D02*
X95242000Y-127739000D01*
X82569000Y-127699000D02*
X87460000Y-127699000D01*
X90340000Y-127699000D02*
X95231000Y-127699000D01*
X82580000Y-127659000D02*
X87460000Y-127659000D01*
X90340000Y-127659000D02*
X95220000Y-127659000D01*
X82592000Y-127619000D02*
X87460000Y-127619000D01*
X90340000Y-127619000D02*
X95208000Y-127619000D01*
X82604000Y-127579000D02*
X87460000Y-127579000D01*
X90340000Y-127579000D02*
X95196000Y-127579000D01*
X82616000Y-127539000D02*
X87460000Y-127539000D01*
X90340000Y-127539000D02*
X95184000Y-127539000D01*
X82629000Y-127499000D02*
X87460000Y-127499000D01*
X90340000Y-127499000D02*
X95171000Y-127499000D01*
X82642000Y-127459000D02*
X87460000Y-127459000D01*
X90340000Y-127459000D02*
X95158000Y-127459000D01*
X82655000Y-127419000D02*
X87460000Y-127419000D01*
X90340000Y-127419000D02*
X95145000Y-127419000D01*
X82668000Y-127379000D02*
X87460000Y-127379000D01*
X90340000Y-127379000D02*
X95132000Y-127379000D01*
X82682000Y-127339000D02*
X87460000Y-127339000D01*
X90340000Y-127339000D02*
X95118000Y-127339000D01*
X82696000Y-127299000D02*
X87460000Y-127299000D01*
X90340000Y-127299000D02*
X95104000Y-127299000D01*
X82710000Y-127259000D02*
X87460000Y-127259000D01*
X90340000Y-127259000D02*
X95090000Y-127259000D01*
X82725000Y-127219000D02*
X87460000Y-127219000D01*
X90340000Y-127219000D02*
X95075000Y-127219000D01*
X82739000Y-127179000D02*
X87460000Y-127179000D01*
X90340000Y-127179000D02*
X95061000Y-127179000D01*
X82754000Y-127139000D02*
X87460000Y-127139000D01*
X90340000Y-127139000D02*
X95046000Y-127139000D01*
X82770000Y-127099000D02*
X87460000Y-127099000D01*
X90340000Y-127099000D02*
X95030000Y-127099000D01*
X82786000Y-127059000D02*
X87460000Y-127059000D01*
X90340000Y-127059000D02*
X95014000Y-127059000D01*
X82802000Y-127019000D02*
X87460000Y-127019000D01*
X90340000Y-127019000D02*
X94998000Y-127019000D01*
X82818000Y-126979000D02*
X87460000Y-126979000D01*
X90340000Y-126979000D02*
X94982000Y-126979000D01*
X82835000Y-126939000D02*
X87460000Y-126939000D01*
X90340000Y-126939000D02*
X94965000Y-126939000D01*
X82851000Y-126899000D02*
X87460000Y-126899000D01*
X90340000Y-126899000D02*
X94949000Y-126899000D01*
X82869000Y-126859000D02*
X87460000Y-126859000D01*
X90340000Y-126859000D02*
X94931000Y-126859000D01*
X82886000Y-126819000D02*
X87460000Y-126819000D01*
X90340000Y-126819000D02*
X94914000Y-126819000D01*
X82904000Y-126779000D02*
X87460000Y-126779000D01*
X90340000Y-126779000D02*
X94896000Y-126779000D01*
X82922000Y-126739000D02*
X87460000Y-126739000D01*
X90340000Y-126739000D02*
X94878000Y-126739000D01*
X82941000Y-126699000D02*
X87460000Y-126699000D01*
X90340000Y-126699000D02*
X94859000Y-126699000D01*
X82960000Y-126659000D02*
X87460000Y-126659000D01*
X90340000Y-126659000D02*
X94840000Y-126659000D01*
X82979000Y-126619000D02*
X87460000Y-126619000D01*
X90340000Y-126619000D02*
X94821000Y-126619000D01*
X82998000Y-126579000D02*
X87460000Y-126579000D01*
X90340000Y-126579000D02*
X94802000Y-126579000D01*
X83018000Y-126539000D02*
X87460000Y-126539000D01*
X90340000Y-126539000D02*
X94782000Y-126539000D01*
X83038000Y-126499000D02*
X87460000Y-126499000D01*
X90340000Y-126499000D02*
X94762000Y-126499000D01*
X83059000Y-126459000D02*
X87460000Y-126459000D01*
X90340000Y-126459000D02*
X94741000Y-126459000D01*
X83080000Y-126419000D02*
X87460000Y-126419000D01*
X90340000Y-126419000D02*
X94720000Y-126419000D01*
X83101000Y-126379000D02*
X87460000Y-126379000D01*
X90340000Y-126379000D02*
X94699000Y-126379000D01*
X83122000Y-126339000D02*
X87460000Y-126339000D01*
X90340000Y-126339000D02*
X94678000Y-126339000D01*
X83144000Y-126299000D02*
X87460000Y-126299000D01*
X90340000Y-126299000D02*
X94656000Y-126299000D01*
X83167000Y-126259000D02*
X87460000Y-126259000D01*
X90340000Y-126259000D02*
X94633000Y-126259000D01*
X83189000Y-126219000D02*
X87460000Y-126219000D01*
X90340000Y-126219000D02*
X94611000Y-126219000D01*
X83212000Y-126179000D02*
X87460000Y-126179000D01*
X90340000Y-126179000D02*
X94588000Y-126179000D01*
X83236000Y-126139000D02*
X87460000Y-126139000D01*
X90340000Y-126139000D02*
X94564000Y-126139000D01*
X83259000Y-126099000D02*
X87460000Y-126099000D01*
X90340000Y-126099000D02*
X94541000Y-126099000D01*
X83283000Y-126059000D02*
X87460000Y-126059000D01*
X90340000Y-126059000D02*
X94517000Y-126059000D01*
X83308000Y-126019000D02*
X87460000Y-126019000D01*
X90340000Y-126019000D02*
X94492000Y-126019000D01*
X83333000Y-125979000D02*
X87460000Y-125979000D01*
X90340000Y-125979000D02*
X94467000Y-125979000D01*
X83358000Y-125939000D02*
X87460000Y-125939000D01*
X90340000Y-125939000D02*
X94442000Y-125939000D01*
X83384000Y-125899000D02*
X87460000Y-125899000D01*
X90340000Y-125899000D02*
X94416000Y-125899000D01*
X83410000Y-125859000D02*
X87460000Y-125859000D01*
X90340000Y-125859000D02*
X94390000Y-125859000D01*
X83437000Y-125819000D02*
X87460000Y-125819000D01*
X90340000Y-125819000D02*
X94363000Y-125819000D01*
X83464000Y-125779000D02*
X87460000Y-125779000D01*
X90340000Y-125779000D02*
X94336000Y-125779000D01*
X83491000Y-125739000D02*
X87460000Y-125739000D01*
X90340000Y-125739000D02*
X94309000Y-125739000D01*
X83519000Y-125699000D02*
X87460000Y-125699000D01*
X90340000Y-125699000D02*
X94281000Y-125699000D01*
X83547000Y-125659000D02*
X87460000Y-125659000D01*
X90340000Y-125659000D02*
X94253000Y-125659000D01*
X83576000Y-125619000D02*
X87460000Y-125619000D01*
X90340000Y-125619000D02*
X94224000Y-125619000D01*
X83605000Y-125579000D02*
X87460000Y-125579000D01*
X90340000Y-125579000D02*
X94195000Y-125579000D01*
X83635000Y-125539000D02*
X94165000Y-125539000D01*
X83665000Y-125499000D02*
X94135000Y-125499000D01*
X83695000Y-125459000D02*
X94105000Y-125459000D01*
X83726000Y-125419000D02*
X94074000Y-125419000D01*
X83758000Y-125379000D02*
X94042000Y-125379000D01*
X83790000Y-125339000D02*
X94010000Y-125339000D01*
X83822000Y-125299000D02*
X93978000Y-125299000D01*
X83856000Y-125259000D02*
X93944000Y-125259000D01*
X83889000Y-125219000D02*
X93911000Y-125219000D01*
X83923000Y-125179000D02*
X93877000Y-125179000D01*
X83958000Y-125139000D02*
X93842000Y-125139000D01*
X83993000Y-125099000D02*
X93807000Y-125099000D01*
X84029000Y-125059000D02*
X93771000Y-125059000D01*
X84066000Y-125019000D02*
X93734000Y-125019000D01*
X84103000Y-124979000D02*
X93697000Y-124979000D01*
X84140000Y-124939000D02*
X93660000Y-124939000D01*
X84179000Y-124899000D02*
X93621000Y-124899000D01*
X84218000Y-124859000D02*
X93582000Y-124859000D01*
X84257000Y-124819000D02*
X93543000Y-124819000D01*
X84298000Y-124779000D02*
X93502000Y-124779000D01*
X84339000Y-124739000D02*
X93461000Y-124739000D01*
X84381000Y-124699000D02*
X93419000Y-124699000D01*
X84423000Y-124659000D02*
X93377000Y-124659000D01*
X84466000Y-124619000D02*
X93334000Y-124619000D01*
X84510000Y-124579000D02*
X93290000Y-124579000D01*
X84555000Y-124539000D02*
X93245000Y-124539000D01*
X84601000Y-124499000D02*
X93199000Y-124499000D01*
X84647000Y-124459000D02*
X93153000Y-124459000D01*
X84695000Y-124419000D02*
X93105000Y-124419000D01*
X84743000Y-124379000D02*
X93057000Y-124379000D01*
X84792000Y-124339000D02*
X93008000Y-124339000D01*
X84843000Y-124299000D02*
X92957000Y-124299000D01*
X84894000Y-124259000D02*
X92906000Y-124259000D01*
X84946000Y-124219000D02*
X92854000Y-124219000D01*
X85000000Y-124179000D02*
X92800000Y-124179000D01*
X85054000Y-124139000D02*
X92746000Y-124139000D01*
X85110000Y-124099000D02*
X92690000Y-124099000D01*
X85167000Y-124059000D02*
X92633000Y-124059000D01*
X85225000Y-124019000D02*
X92575000Y-124019000D01*
X85285000Y-123979000D02*
X92515000Y-123979000D01*
X85346000Y-123939000D02*
X92454000Y-123939000D01*
X85409000Y-123899000D02*
X92391000Y-123899000D01*
X85473000Y-123859000D02*
X92327000Y-123859000D01*
X85539000Y-123819000D02*
X92261000Y-123819000D01*
X85607000Y-123779000D02*
X92193000Y-123779000D01*
X85677000Y-123739000D02*
X92123000Y-123739000D01*
X85748000Y-123699000D02*
X92052000Y-123699000D01*
X85822000Y-123659000D02*
X91978000Y-123659000D01*
X85898000Y-123619000D02*
X91902000Y-123619000D01*
X85977000Y-123579000D02*
X91823000Y-123579000D01*
X86058000Y-123539000D02*
X91742000Y-123539000D01*
X86142000Y-123499000D02*
X91658000Y-123499000D01*
X86230000Y-123459000D02*
X91570000Y-123459000D01*
X86321000Y-123419000D02*
X91479000Y-123419000D01*
X86416000Y-123379000D02*
X91384000Y-123379000D01*
X86515000Y-123339000D02*
X91285000Y-123339000D01*
X86619000Y-123299000D02*
X91181000Y-123299000D01*
X86729000Y-123259000D02*
X91071000Y-123259000D01*
X86845000Y-123219000D02*
X90955000Y-123219000D01*
X86969000Y-123179000D02*
X90831000Y-123179000D01*
X87102000Y-123139000D02*
X90698000Y-123139000D01*
X87247000Y-123099000D02*
X90553000Y-123099000D01*
X87406000Y-123059000D02*
X90394000Y-123059000D01*
X87585000Y-123019000D02*
X90215000Y-123019000D01*
X87793000Y-122979000D02*
X90007000Y-122979000D01*
X88050000Y-122939000D02*
X89750000Y-122939000D01*
X88425000Y-122899000D02*
X89375000Y-122899000D01*
X95520000Y-129500000D02*
G75*
G03*
X95520000Y-129500000I-6620000J0D01*
G01*
%TO.C,U1*%
X72280000Y-100270000D02*
X72280000Y-120710000D01*
X72280000Y-120710000D02*
X77580000Y-120710000D01*
X73930000Y-100270000D02*
X72280000Y-100270000D01*
X77580000Y-100270000D02*
X75930000Y-100270000D01*
X77580000Y-120710000D02*
X77580000Y-100270000D01*
X73930000Y-100270000D02*
G75*
G03*
X75930000Y-100270000I1000000J0D01*
G01*
%TO.C,M1*%
X62290000Y-113090000D02*
X60960000Y-113090000D01*
X62290000Y-111760000D02*
X62290000Y-113090000D01*
X62290000Y-110490000D02*
X62290000Y-107890000D01*
X62290000Y-110490000D02*
X59630000Y-110490000D01*
X62290000Y-107890000D02*
X59630000Y-107890000D01*
X59630000Y-110490000D02*
X59630000Y-107890000D01*
D12*
%TO.C,U2*%
X133660000Y-136960000D02*
X122591000Y-136960000D01*
X133660000Y-136960000D02*
X105150000Y-136960000D01*
X133660000Y-86010000D02*
X133660000Y-136960000D01*
X133660000Y-86010000D02*
X133660000Y-136960000D01*
X133660000Y-86010000D02*
X128290000Y-86010000D01*
X128290000Y-86010000D02*
X110600000Y-86010000D01*
X122591000Y-136960000D02*
X115880000Y-136960000D01*
X115880000Y-136960000D02*
X105150000Y-136960000D01*
X110600000Y-86010000D02*
X105150000Y-86010000D01*
X105150000Y-136960000D02*
X105150000Y-86010000D01*
X105150000Y-136960000D02*
X105150000Y-86010000D01*
X105150000Y-86010000D02*
X133660000Y-86010000D01*
D13*
X134330000Y-127000000D02*
G75*
G03*
X134330000Y-127000000I-100000J0D01*
G01*
D11*
%TO.C,BT1*%
X95310000Y-72450000D02*
X93980000Y-72450000D01*
X95310000Y-71120000D02*
X95310000Y-72450000D01*
X95310000Y-69850000D02*
X95310000Y-67250000D01*
X95310000Y-69850000D02*
X92650000Y-69850000D01*
X95310000Y-67250000D02*
X92650000Y-67250000D01*
X92650000Y-69850000D02*
X92650000Y-67250000D01*
%TO.C,J1*%
X113820000Y-63320000D02*
X113820000Y-78020000D01*
X104620000Y-63320000D02*
X113820000Y-63320000D01*
X104620000Y-72120000D02*
X104620000Y-63320000D01*
X114020000Y-77170000D02*
X114020000Y-78220000D01*
X113820000Y-78020000D02*
X111220000Y-78020000D01*
X107320000Y-78020000D02*
X104620000Y-78020000D01*
X104620000Y-78020000D02*
X104620000Y-76120000D01*
X112970000Y-78220000D02*
X114020000Y-78220000D01*
%TO.C,M2*%
X85030000Y-107890000D02*
X86360000Y-107890000D01*
X85030000Y-109220000D02*
X85030000Y-107890000D01*
X85030000Y-110490000D02*
X85030000Y-113090000D01*
X85030000Y-110490000D02*
X87690000Y-110490000D01*
X85030000Y-113090000D02*
X87690000Y-113090000D01*
X87690000Y-110490000D02*
X87690000Y-113090000D01*
%TD*%
M02*
